<svg width="118" height="32" viewBox="0 0 118 32" fill="none" xmlns="http://www.w3.org/2000/svg">
<g id="logo-unicanext">
<g id="Vector">
<path d="M69.2871 12.1661H71.4539V14.3215H71.5081C72.4651 12.6743 73.9818 11.8507 76.0583 11.8507C76.9792 11.8507 77.7466 11.9733 78.3605 12.2187C78.9744 12.464 79.471 12.8057 79.8502 13.2438C80.2294 13.6819 80.4912 14.2076 80.6356 14.8209C80.7981 15.4168 80.8794 16.0827 80.8794 16.8187V25.7558H78.5772V16.5558C78.5772 15.7147 78.3244 15.0488 77.8188 14.5581C77.3132 14.0674 76.6181 13.8221 75.7333 13.8221C75.0291 13.8221 74.4152 13.9272 73.8915 14.1375C73.3859 14.3478 72.9616 14.6457 72.6185 15.0312C72.2755 15.4168 72.0136 15.8724 71.8331 16.3981C71.6706 16.9063 71.5893 17.467 71.5893 18.0804V25.7558H69.2871V12.1661Z" fill="#E0001A"/>
<path d="M92.9772 17.6598C92.9411 17.1341 92.8147 16.6347 92.598 16.1615C92.3994 15.6884 92.1195 15.2853 91.7584 14.9524C91.4153 14.6019 91 14.3303 90.5125 14.1375C90.043 13.9272 89.5194 13.8221 88.9416 13.8221C88.3457 13.8221 87.804 13.9272 87.3165 14.1375C86.847 14.3303 86.4407 14.6019 86.0977 14.9524C85.7546 15.3028 85.4837 15.7147 85.2851 16.1878C85.0865 16.6434 84.9691 17.1341 84.933 17.6598H92.9772ZM95.1982 21.4449C94.8912 22.9695 94.2141 24.1173 93.1668 24.8884C92.1195 25.6594 90.8014 26.0449 89.2124 26.0449C88.0929 26.0449 87.1179 25.8697 86.2873 25.5192C85.4747 25.1688 84.7886 24.6781 84.2288 24.0472C83.6691 23.4164 83.2447 22.6628 82.9558 21.7867C82.685 20.9105 82.5315 19.9554 82.4954 18.9215C82.4954 17.8876 82.6579 16.9413 82.9829 16.0827C83.3079 15.224 83.7593 14.4792 84.3372 13.8484C84.933 13.2175 85.6282 12.7268 86.4227 12.3764C87.2352 12.0259 88.12 11.8507 89.077 11.8507C90.3229 11.8507 91.3521 12.1048 92.1647 12.6129C92.9953 13.1036 93.6543 13.7345 94.1419 14.5055C94.6474 15.2766 94.9905 16.1177 95.1711 17.0289C95.3697 17.9402 95.451 18.8076 95.4148 19.6312H84.933C84.915 20.227 84.9872 20.7966 85.1497 21.3398C85.3122 21.8655 85.574 22.3387 85.9352 22.7592C86.2963 23.1623 86.7567 23.4865 87.3165 23.7318C87.8762 23.9771 88.5353 24.0998 89.2937 24.0998C90.2687 24.0998 91.0632 23.8808 91.6771 23.4427C92.3091 23.0046 92.7244 22.3387 92.923 21.4449H95.1982Z" fill="#E0001A"/>
<path d="M100.483 18.6061L95.6074 12.1661H98.5596L101.918 16.9238L105.412 12.1661H108.175L103.354 18.4221L108.771 25.7558H105.818L101.918 20.1307L98.0179 25.7558H95.2282L100.483 18.6061Z" fill="#E0001A"/>
<path d="M112.849 12.1661H115.639V14.1375H112.849V22.5752C112.849 22.8381 112.867 23.0484 112.903 23.2061C112.957 23.3638 113.048 23.4865 113.174 23.5741C113.3 23.6617 113.472 23.723 113.689 23.7581C113.923 23.7756 114.221 23.7844 114.582 23.7844H115.639V25.7558H113.878C113.282 25.7558 112.768 25.7208 112.334 25.6507C111.919 25.563 111.576 25.4141 111.305 25.2038C111.052 24.9935 110.863 24.6956 110.736 24.3101C110.61 23.9246 110.547 23.4164 110.547 22.7855V14.1375H108.163V12.1661H110.547V8.0918H112.849V12.1661Z" fill="#E0001A"/>
<path d="M14.599 25.7563H10.9426V23.8637H10.8613C10.3738 24.6523 9.74181 25.2218 8.96538 25.5723C8.18895 25.9228 7.39446 26.098 6.58192 26.098C5.5527 26.098 4.70404 25.9666 4.03595 25.7037C3.38591 25.4409 2.8713 25.0729 2.49211 24.5997C2.11293 24.109 1.84208 23.522 1.67957 22.8386C1.53512 22.1376 1.46289 21.3666 1.46289 20.5254V12.1666H5.30893V19.842C5.30893 20.9635 5.4895 21.8047 5.85063 22.3654C6.21176 22.9087 6.85277 23.1803 7.77365 23.1803C8.82093 23.1803 9.5793 22.8824 10.0488 22.2866C10.5182 21.6732 10.753 20.6744 10.753 19.29V12.1666H14.599V25.7563Z" fill="#E0001A"/>
<path d="M16.4347 12.1666H20.0911V14.0591H20.1724C20.6599 13.2706 21.2919 12.701 22.0683 12.3506C22.8447 11.9826 23.6392 11.7986 24.4518 11.7986C25.481 11.7986 26.3206 11.9388 26.9706 12.2191C27.6387 12.482 28.1624 12.8588 28.5416 13.3494C28.9207 13.8226 29.1826 14.4096 29.327 15.1106C29.4895 15.794 29.5708 16.5563 29.5708 17.3974V25.7563H25.7247V18.0809C25.7247 16.9593 25.5442 16.1269 25.183 15.5837C24.8219 15.0229 24.1809 14.7426 23.26 14.7426C22.2127 14.7426 21.4544 15.0492 20.9849 15.6626C20.5154 16.2584 20.2807 17.2485 20.2807 18.6329V25.7563H16.4347V12.1666Z" fill="#E0001A"/>
<path d="M35.3608 10.0637H31.5147V6.98828H35.3608V10.0637ZM31.5147 12.1666H35.3608V25.7563H31.5147V12.1666Z" fill="#E0001A"/>
<path d="M46.8397 16.9506C46.5869 15.3909 45.6389 14.6111 43.9958 14.6111C43.3818 14.6111 42.8672 14.7513 42.4519 15.0317C42.0366 15.2946 41.6936 15.645 41.4227 16.0831C41.1699 16.5037 40.9893 16.9769 40.881 17.5026C40.7727 18.0108 40.7185 18.5189 40.7185 19.0271C40.7185 19.5178 40.7727 20.0172 40.881 20.5254C40.9893 21.0336 41.1609 21.498 41.3956 21.9186C41.6484 22.3216 41.9825 22.6546 42.3978 22.9174C42.8131 23.1803 43.3186 23.3117 43.9145 23.3117C44.8354 23.3117 45.5396 23.0664 46.0271 22.5757C46.5327 22.0675 46.8487 21.3929 46.9751 20.5517H50.6857C50.4329 22.3567 49.7107 23.7323 48.5189 24.6786C47.3272 25.6249 45.8014 26.098 43.9416 26.098C42.8943 26.098 41.9283 25.9315 41.0435 25.5986C40.1768 25.2481 39.4365 24.7662 38.8226 24.1529C38.2086 23.5395 37.7301 22.8123 37.3871 21.9711C37.044 21.1125 36.8725 20.1749 36.8725 19.1586C36.8725 18.1071 37.0259 17.1346 37.3329 16.2409C37.6579 15.3296 38.1274 14.5498 38.7413 13.9014C39.3552 13.2355 40.1046 12.7186 40.9894 12.3506C41.8741 11.9826 42.8853 11.7986 44.0229 11.7986C44.8535 11.7986 45.6479 11.9037 46.4063 12.114C47.1827 12.3243 47.8689 12.6485 48.4648 13.0866C49.0787 13.5071 49.5752 14.0416 49.9544 14.69C50.3336 15.3209 50.5503 16.0744 50.6045 16.9506H46.8397Z" fill="#E0001A"/>
<path d="M51.6125 16.346C51.6667 15.4698 51.8924 14.7426 52.2896 14.1643C52.6869 13.586 53.1925 13.1216 53.8064 12.7711C54.4203 12.4207 55.1065 12.1753 55.8648 12.0351C56.6413 11.8774 57.4177 11.7986 58.1941 11.7986C58.8983 11.7986 59.6116 11.8511 60.3338 11.9563C61.0561 12.0439 61.7152 12.2279 62.311 12.5083C62.9069 12.7887 63.3944 13.1829 63.7736 13.6911C64.1528 14.1818 64.3424 14.8389 64.3424 15.6626V22.7334C64.3424 23.3468 64.3785 23.9338 64.4507 24.4946C64.5229 25.0553 64.6493 25.4759 64.8299 25.7563H60.9297C60.8575 25.546 60.7943 25.3357 60.7401 25.1254C60.704 24.8976 60.6769 24.6698 60.6588 24.442C60.0449 25.0553 59.3227 25.4847 58.4921 25.73C57.6615 25.9753 56.8128 26.098 55.9461 26.098C55.278 26.098 54.655 26.0191 54.0772 25.8614C53.4994 25.7037 52.9938 25.4584 52.5605 25.1254C52.1271 24.7925 51.7841 24.3719 51.5313 23.8637C51.2965 23.3555 51.1792 22.751 51.1792 22.05C51.1792 21.279 51.3146 20.6481 51.5854 20.1574C51.8743 19.6492 52.2355 19.2462 52.6688 18.9483C53.1202 18.6504 53.6258 18.4313 54.1856 18.2911C54.7634 18.1334 55.3412 18.0108 55.919 17.9231C56.4968 17.8355 57.0656 17.7654 57.6254 17.7129C58.1851 17.6603 58.6817 17.5814 59.115 17.4763C59.5484 17.3711 59.8914 17.2222 60.1442 17.0294C60.397 16.8191 60.5144 16.5212 60.4963 16.1357C60.4963 15.7327 60.4241 15.4172 60.2797 15.1894C60.1533 14.9441 59.9727 14.7601 59.738 14.6374C59.5213 14.4972 59.2595 14.4096 58.9525 14.3746C58.6636 14.322 58.3476 14.2957 58.0045 14.2957C57.2462 14.2957 56.6503 14.4534 56.2169 14.7689C55.7836 15.0843 55.5308 15.61 55.4586 16.346H51.6125ZM60.4963 19.106C60.3338 19.2462 60.1262 19.3601 59.8734 19.4477C59.6387 19.5178 59.3768 19.5791 59.0879 19.6317C58.8171 19.6843 58.5282 19.7281 58.2212 19.7631C57.9143 19.7982 57.6073 19.842 57.3003 19.8946C57.0114 19.9471 56.7225 20.0172 56.4336 20.1049C56.1628 20.1925 55.919 20.3151 55.7023 20.4729C55.5037 20.613 55.3412 20.797 55.2148 21.0249C55.0884 21.2527 55.0252 21.5418 55.0252 21.8923C55.0252 22.2252 55.0884 22.5056 55.2148 22.7334C55.3412 22.9612 55.5127 23.1452 55.7294 23.2854C55.9461 23.4081 56.1989 23.4957 56.4878 23.5483C56.7767 23.6009 57.0746 23.6271 57.3816 23.6271C58.14 23.6271 58.7268 23.5045 59.1421 23.2591C59.5574 23.0138 59.8644 22.7247 60.063 22.3917C60.2616 22.0412 60.379 21.6908 60.4151 21.3403C60.4693 20.9898 60.4963 20.7094 60.4963 20.4991V19.106Z" fill="#E0001A"/>
</g>
</g>
</svg>
